<svg xmlns="http://www.w3.org/2000/svg" viewBox="0 0 4096 2048"><g id="图层_7_复制" data-name="图层 7_复制"><path d="M2347.89,1346.69h-30l30-213.9h-49.2l3.6-28.5H2431l-3.9,28.5h-49.2Z" style="fill:#264896"/><path d="M2496.08,1163.69h29.1l-26.1,183h-27.3l1.5-17.7q-7.5,11.1-16.65,15.9a38.3,38.3,0,0,1-17.85,4.8,36.23,36.23,0,0,1-19.35-5.25q-8.55-5.25-12.45-17.1t-1.2-31.65l18.6-132h29.4l-18.3,127.2q-4.5,31.8,15.3,31.8,9.6,0,16.8-9t10.5-23.1Z" style="fill:#264896"/><path d="M2536.28,1293.59l16.2-103.5H2533l3.9-26.4h19.8l7.8-50.4h27.6l-7.5,50.4h33.9l-3.9,26.4h-34.2l-15,100.2q-2.4,16.5-.15,24.45t10.65,8q7.2,0,15.3-5.7l9.3,24.6a107.65,107.65,0,0,1-19.35,6.6,53.4,53.4,0,0,1-19.35,1.2,29.74,29.74,0,0,1-16.05-7.05q-6.75-5.85-9.6-17.7T2536.28,1293.59Z" style="fill:#264896"/><path d="M2659.88,1349.69q-29.1,0-39.9-23t-4.5-71.25q6.3-48.88,22.95-71.85t45.15-23q29.4,0,40.2,23t4.5,71.85q-6.3,48.32-23,71.25T2659.88,1349.69Zm2.1-27q13.8,0,22.65-16.35t13.65-50.85q5.1-34.8.9-51.3t-18-16.5q-13.2,0-21.9,16.5t-13.8,51.3q-4.8,34.5-.9,50.85T2662,1322.69Z" style="fill:#264896"/><path d="M2769.08,1346.69h-28.5l25.8-183.9h28.5l-3.3,23.1q8.7-13.2,20.7-18.9a58.18,58.18,0,0,1,25.2-5.7l-3.9,29.7a39.45,39.45,0,0,0-30,8.25q-13.5,10.35-18.3,32.85Z" style="fill:#264896"/><path d="M2857,1346.69h-29.1l25.8-183h29.1Zm14.4-202.8q-8.4,0-12.6-5.7t-3-14.7a29.08,29.08,0,0,1,6.6-14.55q5.1-5.85,14.4-5.85,8.7,0,12.9,5.85t2.7,14.55a26.21,26.21,0,0,1-6.45,14.7Q2880.68,1143.89,2871.38,1143.89Z" style="fill:#264896"/><path d="M2994.08,1346.69h-27.6l1.5-16.5a55.46,55.46,0,0,1-14.85,14.25,31.68,31.68,0,0,1-17.25,5.25,35.13,35.13,0,0,1-24.75-9.6q-10.35-9.6-14.25-31.35t1.2-58q6.3-45.6,23-67.65t38.55-22q20.09,0,29.1,18.3l2.1-15.6h29.1Zm-66.3-92.7a304.55,304.55,0,0,0-2.55,34.8q-.17,15.6,4.05,24.75t14.4,9.15a19.07,19.07,0,0,0,13.05-5.25,45.29,45.29,0,0,0,10.05-13.65,89.81,89.81,0,0,0,6.6-17.7l9.6-66.9q.29-13.79-5.25-22.5t-15.45-8.7q-9.3,0-16.2,9t-11.4,24A213.17,213.17,0,0,0,2927.78,1254Z" style="fill:#264896"/><path d="M3053.17,1346.69h-29.1l35.7-252h29.1Z" style="fill:#264896"/><path d="M3299.66,1099.7h31.5l3,156.3q.3,7.8.45,16.8t.15,17.7q2.4-8.4,5.4-18.15t5.7-19.65l42.9-153h32.1l3,156.3q.3,7.8.45,16.65t.15,17.85q2.4-8.4,5.4-18.15t5.7-19.65l42.9-153h32.1l-78.3,242.4h-29.1l-6.3-145.2q-.3-6-.15-14.85t.45-18.15q-2.4,9-4.8,17.55t-4.2,14.25l-45.6,146.4h-29.1Z" style="fill:#264896"/><path d="M3520.16,1342.1h-29.1l25.8-183H3546Zm14.4-202.8q-8.4,0-12.6-5.7t-3-14.7a29.08,29.08,0,0,1,6.6-14.55q5.1-5.85,14.4-5.85,8.68,0,12.9,5.85t2.7,14.55a26.31,26.31,0,0,1-6.45,14.7Q3543.85,1139.3,3534.56,1139.3Z" style="fill:#264896"/><path d="M3579.86,1342.1h-29.1l35.7-252h29.1l-22.5,158.4,57.6-89.4h31.2l-51.9,76.5,24.3,106.8h-30l-16.8-80.1-20.7,30.3Z" style="fill:#264896"/><path d="M3699.85,1342.1h-29.1l25.8-183h29.1Zm14.4-202.8q-8.4,0-12.6-5.7t-3-14.7a29.17,29.17,0,0,1,6.6-14.55q5.1-5.85,14.4-5.85,8.7,0,12.9,5.85t2.7,14.55a26.18,26.18,0,0,1-6.45,14.7Q3723.55,1139.3,3714.25,1139.3Z" style="fill:#264896"/><path d="M3226.1,1299.78l-20.6,8.8c-1.07-2.27-2.13-4.57-3.2-6.91s-2.13-4.63-3.2-6.89a64.09,64.09,0,0,1-14.4,10.1q-7.39,3.69-17.8,3.7a28,28,0,0,1-17.7-5.7,31.57,31.57,0,0,1-10.5-14.91,40.16,40.16,0,0,1-1.6-19.59,49.64,49.64,0,0,1,11-24.91,155,155,0,0,1,19.6-19.5,7.37,7.37,0,0,0-.6-1.59,140.82,140.82,0,0,1-6.8-23.3,41.92,41.92,0,0,1,.8-19.11,33,33,0,0,1,11.7-17.3q8.5-6.5,20.7-6.5,15,0,22.9,9.71t4.9,26.09l-18.2-2a14.77,14.77,0,0,0-.5-11.8q-2.7-5.6-9.7-5.59a12,12,0,0,0-8.2,2.8,14.34,14.34,0,0,0-4.4,7.4,28.56,28.56,0,0,0,.4,14.19q2,7.41,5,15.61,4.61,13,9.9,25.39t11.3,24.81q4-4.6,8.3-9.4c2.87-3.21,5.3-6,7.3-8.41l11.8,12.61q-9.8,11.39-19.4,21.39Q3220.1,1289,3226.1,1299.78Zm-68.2-32.4a25,25,0,0,0,.4,10.9,17.4,17.4,0,0,0,5,8.6,13.08,13.08,0,0,0,9.2,3.29,18.29,18.29,0,0,0,10.2-3.29,60,60,0,0,0,9.2-7.5q-4.4-9.41-8.8-19t-8.4-19.21a89.85,89.85,0,0,0-11.1,11.91A30.14,30.14,0,0,0,3157.9,1267.38Z" style="fill:#264896"/><path d="M2057.55,979.91l-21.6-26a280.29,280.29,0,0,0,40.4-50.2,313.56,313.56,0,0,0,30-62.6h-46l3.6-33.6h64.8l3.2-30.8h35.2l-3.2,30.8h50.4l-3.6,33.6h-52l-1.2,10.4a274,274,0,0,1,32,32.6q14.8,17.79,28.4,37l-25.2,22.4a408.27,408.27,0,0,0-39.2-54.4l-13.6,127.6h-34.8l17.6-144.8a395.24,395.24,0,0,1-28,57.8A319.41,319.41,0,0,1,2057.55,979.91Zm163.2-349.2,9.2,31.2q-34,8.79-73.2,15.2t-78,10l-6.8-33.2q38.81-3.21,76.8-9.4T2220.75,630.71ZM2092,781.51a561.54,561.54,0,0,0-16.8-70.4l29.6-8q5.6,17.21,10,34.6t7.6,33.8Zm73.2-32.4-28,6q-2-14-5-28.4t-7.4-29.2l28-6A452.19,452.19,0,0,1,2165.15,749.11Zm3.2,19.2a241,241,0,0,0,17.4-38.2,403.56,403.56,0,0,0,12.6-44.2l30.4,5.2a430.41,430.41,0,0,1-12.8,46.2,281.27,281.27,0,0,1-17.6,40.6Zm40.8,246.4-24-27.6a249.31,249.31,0,0,0,57.6-52.4,332.26,332.26,0,0,0,41.2-64.4l31.6,16.8a391.55,391.55,0,0,1-43.2,70.2A233.69,233.69,0,0,1,2209.15,1014.71Zm26.4-138-27.2-23.6a266.61,266.61,0,0,0,49.8-55,468.85,468.85,0,0,0,37-63.8l30,14.4a317.84,317.84,0,0,1-23.2,45.2,442.27,442.27,0,0,1-31.6,45.2A321.2,321.2,0,0,1,2235.55,876.71Zm92.8-230.8a309.27,309.27,0,0,1-32.2,53.6,289.18,289.18,0,0,1-43.4,47.2l-26.8-22.8a217.81,217.81,0,0,0,40-41.2,362.15,362.15,0,0,0,32.4-52.8Z" style="fill:#264896"/><path d="M2636.75,881.11l-.4,32-124.4,8.4q-3.21,32.4,8,46t32.8,13.6q43.59,0,62.4-50l31.6,13.6q-12,34.39-34.2,53.2t-62.6,18.8q-22.8,0-41-9.6t-27.4-30q-9.21-20.4-5.6-52.8l-106,7.2.4-32,108.8-7.6,3.6-33.6-87.6,6,.8-31.6,90-6,3.2-32.4q-22.41,2-44.8,3.6t-44,2.4v-34q54.8-1.6,111.4-7.6a1006.75,1006.75,0,0,0,105-16.4l6.4,32q-22.41,4.8-47.2,8.8t-50.4,7.2l-3.6,34.4,96.4-6.4-.8,31.2-98.8,6.4-3.6,33.6Zm-137.2-146.8-30.8,7.2a339.33,339.33,0,0,0-10.4-50.4H2448a258.31,258.31,0,0,1-15.6,26.2,266.56,266.56,0,0,1-20.8,26.6l-26.4-21.6a247.8,247.8,0,0,0,31-44.6,297,297,0,0,0,20.6-50.2l32.4,8.8q-2,6-3.8,12t-4.2,12h66.4l-3.2,30.8h-33.2q2.79,10.39,5,21.2T2499.55,734.31Zm129.2-6.8-30.4,7.6q-1.6-10.8-4.2-21.6t-5.4-22h-18.4a312.68,312.68,0,0,1-26,44.8l-29.2-17.2a249.59,249.59,0,0,0,25.6-42.4,381.73,381.73,0,0,0,18.8-48.8l32.4,9.6q-4,12-8,22.8h75.2l-2.8,31.2h-36q2.79,8.81,4.8,18T2628.75,727.51Z" style="fill:#264896"/><path d="M2697.54,974.71l14-142h56.8l4.4-41.6h-63.2l3.6-32.8h63.2l4.8-46h-28.8q-5.6,15.2-12.4,29.2l-28.4-10a300.5,300.5,0,0,0,17.6-45.4,401.79,401.79,0,0,0,10.8-46.6l30.8,5.6q-3.19,17.6-8,34.4h21.6l5.6-51.2h33.6l-5.6,51.2h52l-3.6,32.8h-51.6l-4.8,46h54.8l-3.6,32.8h-54.8l-4.4,41.6h24.4q13.2,0,21,7.6t6.6,20.8l-6.4,63.2q-2,22-10.6,34.4t-22.6,12.4q-16,0-25.6-12.4l-6,56h-33.6l16-150.8h-25.2l-10.8,110.8Zm120-66.4,4.8-44.4h-23.6l-6.4,61.6a21.87,21.87,0,0,0,5.4,8.6q3.8,3.79,7.4,3.8,5.59,0,8.2-6.2T2817.54,908.31Zm70,32.8q1.2,19.2,3.8,28.8t8.2,9.6q5.21,0,8.6-9.6t6.2-35.6l32.8-306h32.4l-32.4,309.2q-4,38.81-14.6,58.6t-33.4,19.8q-17.2,0-27.8-17.8t-12.6-53Zm-23.6-26.8,26.4-249.2h30.4l-26,249.2Z" style="fill:#264896"/><path d="M3295.54,672.71l-36.8,342.8h-255.6l39.2-375.6h222.4q18.39,0,25.4,9T3295.54,672.71Zm-253.6,308.4h185.2l33.2-306.8h-186.4Zm34.8-125.6-14-29.6a254,254,0,0,0,38.2-13.2,239.68,239.68,0,0,0,34.2-18.4,161.58,161.58,0,0,1-20.8-30.4q-11.21,10.8-24.8,22l-18.4-23.6a212,212,0,0,0,38.4-36.6,227.73,227.73,0,0,0,28.4-43.8l28,8a203.3,203.3,0,0,1-10.8,21.6h46.4q17.6,0,23.2,11.4t-5.6,28.6a232.45,232.45,0,0,1-40.8,47.2,155,155,0,0,0,58.8,30.8l-13.2,28.8q-39.21-16.8-68-42a277.24,277.24,0,0,1-36.6,21.2Q3099.54,847.11,3076.74,855.51Zm104.8,113.2a588.28,588.28,0,0,0-50.2-33,451.21,451.21,0,0,0-51.4-25.8l18.8-26.4a532.7,532.7,0,0,1,102,58.4Zm13.6-92.8-15.6,24.8a313.77,313.77,0,0,0-60-36.8l16.8-23.6a235.65,235.65,0,0,1,30.4,16Q3181.53,865.51,3195.14,875.91Zm-60-134.4a164.23,164.23,0,0,0,22.8,36.4q20.79-17.2,33.6-36.4Z" style="fill:#264896"/><path d="M3580.73,973.91l-3.6,34.8h-248l3.6-34.8h105.6l10.4-101.2h-79.2l3.6-34.8h79.2l6.4-59.6h-85.2l2.4-24h-19.6l8.8-84.4h104l4.4-41.6h36.8l-4.4,41.6h72q18,0,26,9.4t6.4,24.2l-5.6,50.8h-21.6l-2.4,24h-86.8l-6.4,59.6h82.8l-3.6,34.8h-82.8l-10.4,101.2Zm-186.4-230.4h175.2l4-38.8h-175.2Zm136,144q9.2,14,17,28.6t14.2,29.8l-29.6,14.4q-6-14-13.6-28.4t-16.8-28.8Z" style="fill:#264896"/><path d="M3652.73,1015.51l-16.8-30a473.38,473.38,0,0,0,51.4-29.2,396.11,396.11,0,0,0,44.2-34l21.6,25.2a518.52,518.52,0,0,1-45.6,35.2A542.73,542.73,0,0,1,3652.73,1015.51Zm264.8-138.4-4,35.2h-262.4l4-35.2h19.6l21.6-204h64.8l4.8-44.8h31.2l-4.8,44.8h30.4l4.8-44.8h31.2l-4.8,44.8h31.6q16.39,0,23.8,8.6t5.8,23l-18.8,172.4Zm-208.8,0h31.2l8.4-79.6h-31.2Zm11.6-110.4h31.2l6-59.6h-30.8Zm50.4,110.4h30.8l8.4-79.6h-30.8Zm11.6-110.4h30.8l6-59.6h-30.4Zm40,156a448.58,448.58,0,0,0,41.6,34.8q21.2,15.6,44.8,31.2l-21.6,26.8q-24.4-15.6-45.2-31.8t-41.6-35.8Zm10-45.6h30l8.4-79.6h-30Zm11.6-110.4h30.4l6.4-59.6h-30.4Z" style="fill:#264896"/><path d="M1330,1705.43a772,772,0,0,1-295,58.21c-427.54,0-774.13-346.59-774.13-774.13S607.42,215.38,1035,215.38,1809.09,562,1809.09,989.51a774.46,774.46,0,0,1-31.43,219" style="fill:none;stroke:#264896;stroke-linecap:round;stroke-miterlimit:10;stroke-width:40px"/><path d="M590,813.36l121.8,211a30.07,30.07,0,0,0,41.07,11l151.43-87.43a30.07,30.07,0,0,1,41.07,11l268.86,465.69a30.07,30.07,0,0,0,41.07,11l86.37-49.87a30.05,30.05,0,0,0,11-41.06L1083.79,879a30.06,30.06,0,0,1,11-41.07l151.43-87.43a30.06,30.06,0,0,0,11-41.06l-121.8-211a30.07,30.07,0,0,0-41.07-11L601,772.29A30.07,30.07,0,0,0,590,813.36Z" style="fill:none;stroke:#264896;stroke-miterlimit:10;stroke-width:40px"/><path d="M1709.26,1705.43h17.14c16.92,0,31.83-13.72,33.31-30.64L1787,1363.3c1.48-16.92-11-30.64-28-30.64H1507.77c-16.92,0-31.83,13.72-33.31,30.64l-27.26,311.49c-1.48,16.92,11,30.64,28,30.64h97.5" style="fill:none;stroke:#264896;stroke-linecap:round;stroke-miterlimit:10;stroke-width:40px"/><line x1="1553.92" y1="1429.68" x2="1696.9" y2="1429.68" style="fill:none;stroke:#264896;stroke-linecap:round;stroke-miterlimit:10;stroke-width:40px"/><line x1="1546.11" y1="1519.04" x2="1689.09" y2="1519.04" style="fill:none;stroke:#264896;stroke-linecap:round;stroke-miterlimit:10;stroke-width:40px"/><line x1="1538.29" y1="1608.41" x2="1681.27" y2="1608.41" style="fill:none;stroke:#264896;stroke-linecap:round;stroke-miterlimit:10;stroke-width:40px"/></g></svg>