<svg xmlns="http://www.w3.org/2000/svg" viewBox="0 0 2048 2048"><g id="图层_1_复制" data-name="图层 1_复制"><path d="M1328.9,1733.43a771.94,771.94,0,0,1-295.05,58.21c-427.54,0-774.13-346.59-774.13-774.13s346.59-774.13,774.13-774.13S1808,590,1808,1017.51a774.33,774.33,0,0,1-31.43,219" style="fill:none;stroke:#264896;stroke-linecap:round;stroke-miterlimit:10;stroke-width:40px"/></g><g id="图层_4_复制" data-name="图层 4_复制"><path d="M588.88,841.35l121.8,211a30.05,30.05,0,0,0,41.06,11l151.44-87.43a30.06,30.06,0,0,1,41.06,11l268.87,465.69a30.06,30.06,0,0,0,41.06,11l86.37-49.87a30.06,30.06,0,0,0,11-41.06L1082.68,907a30.07,30.07,0,0,1,11-41.07l151.44-87.43a30.06,30.06,0,0,0,11-41.06l-121.8-211a30.06,30.06,0,0,0-41.06-11L599.88,800.29A30,30,0,0,0,588.88,841.35Z" style="fill:none;stroke:#264896;stroke-miterlimit:10;stroke-width:40px"/></g><g id="图层_7_复制" data-name="图层 7_复制"><path d="M1708.15,1733.43h17.14c16.92,0,31.84-13.72,33.32-30.64l27.25-311.49c1.48-16.92-11-30.64-28-30.64H1506.67c-16.92,0-31.84,13.72-33.32,30.64l-27.25,311.49c-1.48,16.92,11,30.64,28,30.64h97.49" style="fill:none;stroke:#264896;stroke-linecap:round;stroke-miterlimit:10;stroke-width:40px"/><line x1="1552.82" y1="1457.68" x2="1695.8" y2="1457.68" style="fill:none;stroke:#264896;stroke-linecap:round;stroke-miterlimit:10;stroke-width:40px"/><line x1="1545" y1="1547.04" x2="1687.98" y2="1547.04" style="fill:none;stroke:#264896;stroke-linecap:round;stroke-miterlimit:10;stroke-width:40px"/><line x1="1537.18" y1="1636.4" x2="1680.16" y2="1636.4" style="fill:none;stroke:#264896;stroke-linecap:round;stroke-miterlimit:10;stroke-width:40px"/></g></svg>